<svg width="36" height="36" viewBox="0 0 36 36" fill="none" xmlns="http://www.w3.org/2000/svg">
<g id="Property 1=Copy">
<path id="Vector" d="M30.8555 0H9.31975C9.14297 0 8.99833 0.144643 8.99833 0.321429V2.57143C8.99833 2.74821 9.14297 2.89286 9.31975 2.89286H29.2483V30.5357C29.2483 30.7125 29.393 30.8571 29.5698 30.8571H31.8198C31.9965 30.8571 32.1412 30.7125 32.1412 30.5357V1.28571C32.1412 0.574554 31.5666 0 30.8555 0ZM25.7126 5.14286H5.14118C4.43002 5.14286 3.85547 5.71741 3.85547 6.42857V27.7513C3.85547 28.0929 3.99208 28.4183 4.23315 28.6594L11.1961 35.6223C11.2845 35.7107 11.3849 35.783 11.4934 35.8433V35.9196H11.6622C11.8028 35.9719 11.9515 36 12.1041 36H25.7126C26.4238 36 26.9983 35.4254 26.9983 34.7143V6.42857C26.9983 5.71741 26.4238 5.14286 25.7126 5.14286ZM11.4894 31.8295L8.03002 28.3661H11.4894V31.8295ZM24.1055 33.1071H14.0608V27.4018C14.0608 26.5138 13.3416 25.7946 12.4537 25.7946H6.74833V8.03571H24.1055V33.1071Z" fill="#AAAAAA"/>
</g>
</svg>
