<svg width="28" height="28" viewBox="0 0 28 28" fill="none" xmlns="http://www.w3.org/2000/svg">
<g id="Property 1=solar:share-linear">
<g id="Group">
<path id="Vector" d="M10.4993 14C10.4993 14.7736 10.1921 15.5155 9.64508 16.0624C9.0981 16.6094 8.35623 16.9167 7.58268 16.9167C6.80913 16.9167 6.06727 16.6094 5.52029 16.0624C4.97331 15.5155 4.66602 14.7736 4.66602 14C4.66602 13.2265 4.97331 12.4846 5.52029 11.9376C6.06727 11.3907 6.80913 11.0834 7.58268 11.0834C8.35623 11.0834 9.0981 11.3907 9.64508 11.9376C10.1921 12.4846 10.4993 13.2265 10.4993 14Z" stroke="#1B1B1B" stroke-width="1.5"/>
<path id="Vector_2" d="M16.3333 7.58337L10.5 11.6667M16.3333 20.4167L10.5 16.3334" stroke="#1B1B1B" stroke-width="1.5" stroke-linecap="round"/>
<path id="Vector_3" d="M22.1654 21.5833C22.1654 22.3569 21.8581 23.0987 21.3111 23.6457C20.7641 24.1927 20.0222 24.5 19.2487 24.5C18.4751 24.5 17.7333 24.1927 17.1863 23.6457C16.6393 23.0987 16.332 22.3569 16.332 21.5833C16.332 20.8098 16.6393 20.0679 17.1863 19.5209C17.7333 18.974 18.4751 18.6667 19.2487 18.6667C20.0222 18.6667 20.7641 18.974 21.3111 19.5209C21.8581 20.0679 22.1654 20.8098 22.1654 21.5833ZM22.1654 6.41667C22.1654 7.19021 21.8581 7.93208 21.3111 8.47906C20.7641 9.02604 20.0222 9.33333 19.2487 9.33333C18.4751 9.33333 17.7333 9.02604 17.1863 8.47906C16.6393 7.93208 16.332 7.19021 16.332 6.41667C16.332 5.64312 16.6393 4.90125 17.1863 4.35427C17.7333 3.80729 18.4751 3.5 19.2487 3.5C20.0222 3.5 20.7641 3.80729 21.3111 4.35427C21.8581 4.90125 22.1654 5.64312 22.1654 6.41667Z" stroke="#1B1B1B" stroke-width="1.5"/>
</g>
</g>
</svg>
