<svg width="36" height="36" viewBox="0 0 36 36" fill="none" xmlns="http://www.w3.org/2000/svg">
<g id="Property 1=Variant3">
<path id="Vector" d="M17.7463 23.9793C17.7764 24.0177 17.8148 24.0488 17.8587 24.0702C17.9025 24.0915 17.9507 24.1026 17.9994 24.1026C18.0482 24.1026 18.0964 24.0915 18.1402 24.0702C18.1841 24.0488 18.2225 24.0177 18.2526 23.9793L22.7526 18.286C22.9173 18.0771 22.7686 17.7677 22.4994 17.7677H19.5222V4.17128C19.5222 3.9945 19.3776 3.84985 19.2008 3.84985H16.7901C16.6133 3.84985 16.4686 3.9945 16.4686 4.17128V17.7637H13.4994C13.2302 17.7637 13.0816 18.0731 13.2463 18.282L17.7463 23.9793ZM32.7048 22.5731H30.2941C30.1173 22.5731 29.9727 22.7177 29.9727 22.8945V29.082H6.02623V22.8945C6.02623 22.7177 5.88159 22.5731 5.7048 22.5731H3.29408C3.1173 22.5731 2.97266 22.7177 2.97266 22.8945V30.8499C2.97266 31.561 3.54721 32.1356 4.25837 32.1356H31.7405C32.4517 32.1356 33.0262 31.561 33.0262 30.8499V22.8945C33.0262 22.7177 32.8816 22.5731 32.7048 22.5731Z" fill="current"/>
</g>
</svg>
