<svg width="36" height="36" viewBox="0 0 36 36" fill="none" xmlns="http://www.w3.org/2000/svg">
<g id="Property 1=Variant4">
<path id="Vector" d="M28.14 3.15645L28.14 5.31806C28.14 5.48681 28.2806 5.62743 28.4493 5.62743L30.9324 5.62743L30.9324 30.9279L5.6279 30.9279L5.6279 5.62341L8.11094 5.62341C8.27969 5.62341 8.42031 5.48279 8.42031 5.31404L8.42031 3.15243C8.42031 2.98368 8.2837 2.84306 8.11094 2.84306L4.08504 2.84306C3.40201 2.84306 2.85156 3.3935 2.85156 4.07654L2.85156 32.4707C2.85156 33.1538 3.40201 33.7042 4.08504 33.7042L32.4752 33.7042C33.1583 33.7042 33.7087 33.1538 33.7087 32.4707L33.7087 4.08056C33.7087 3.39752 33.1583 2.84707 32.4752 2.84707L28.4493 2.84707C28.2766 2.84707 28.14 2.9877 28.14 3.15645ZM18.027 2.40913L13.527 8.11047C13.3583 8.32342 13.5109 8.63279 13.7801 8.63279L16.8337 8.63279L16.8337 21.2489C16.8337 21.4256 16.9784 21.5703 17.1551 21.5703L19.4051 21.5703C19.5819 21.5703 19.7266 21.4256 19.7266 21.2489L19.7266 8.63279L22.7801 8.63279C23.0493 8.63279 23.202 8.3194 23.0333 8.11047L18.5333 2.40913C18.5032 2.37071 18.4648 2.33964 18.4209 2.31827C18.3771 2.2969 18.3289 2.2858 18.2801 2.2858C18.2314 2.2858 18.1832 2.2969 18.1393 2.31827C18.0955 2.33964 18.0571 2.37071 18.027 2.40913V2.40913Z" fill="current"/>
</g>
</svg>
