<svg width="364" height="120" viewBox="0 0 364 120" fill="none" xmlns="http://www.w3.org/2000/svg">
<path fill-rule="evenodd" clip-rule="evenodd" d="M23.6229 0C10.5764 0 0 10.5763 0 23.6229V96.3771C0 109.424 10.5763 120 23.6229 120H96.3771C109.424 120 120 109.424 120 96.3771V23.6229C120 10.5764 109.424 0 96.3771 0H23.6229ZM57.9744 90.2899C58.2188 91.2691 59.0719 92 60.0813 92C61.0922 92 61.9466 91.2666 62.1878 90.2845C62.9654 87.1184 64.4586 83.7738 66.6666 80.2499C68.4445 77.4166 70.7222 74.7222 73.4998 72.1667C76.2778 69.5555 79.2778 67.3056 82.5002 65.4166C85.1674 63.8797 87.7613 62.7654 90.2813 62.0746C91.272 61.8029 92 60.9274 92 59.9C92 58.8878 91.2934 58.0195 90.3181 57.7485C86.3424 56.6436 82.431 54.7274 78.5834 52C75.639 49.8889 72.9722 47.5278 70.5834 44.9167C68.2499 42.25 66.3334 39.4722 64.8333 36.5833C63.6416 34.2438 62.7654 31.9569 62.2048 29.7227C61.9565 28.733 61.0909 28 60.0707 28C59.0616 28 58.2021 28.7171 57.9476 29.6935C56.9762 33.4204 55.1881 37.1893 52.5833 41C49.6389 45.2778 45.9722 48.9444 41.5833 52C37.7639 54.6442 33.7934 56.5547 29.6719 57.7315C28.6985 58.0094 28 58.8821 28 59.8945C28 60.927 28.7264 61.8099 29.722 62.0835C33.9258 63.2394 38.1296 65.4061 42.3333 68.5834C47.1667 72.1946 50.8889 76.111 53.5 80.3334C55.7038 83.8499 57.1953 87.169 57.9744 90.2899Z" fill="white"/>
<path d="M148.17 18.7969H215.073L211.266 37.7137H145.363L148.17 18.7969Z" fill="white"/>
<path d="M188.913 69.2578H227.389L224.864 88.2578H186.389L188.913 69.2578Z" fill="white"/>
<path d="M181.913 96.2578H220.389L217.864 115.258H179.389L181.913 96.2578Z" fill="white"/>
<path d="M240.389 5.25781L229.806 65.2578H210.389L221.971 5.25781H240.389Z" fill="white"/>
<path d="M243.389 69.2578L235.183 115.258H216.389L224.595 69.2578H243.389Z" fill="white"/>
<path d="M201.389 69.2578L192.318 115.258H173.389L182.459 69.2578H201.389Z" fill="white"/>
<path d="M172.513 5H192.151L189.696 20.7099H170.059L172.513 5Z" fill="white"/>
<path d="M163.094 31.0729L179.061 18.4854L207.067 65.2814H183.52L163.094 31.0729Z" fill="white"/>
<path d="M177.01 14.4033L194.157 24.4359L160.419 78.5356L139.389 78.2568L177.01 14.4033Z" fill="white"/>
<ellipse cx="240.746" cy="49.3568" rx="10.3569" ry="10.3568" fill="white"/>
<path d="M260.17 18.7969H327.073L323.266 37.7137H257.363L260.17 18.7969Z" fill="white"/>
<path d="M300.913 69.2578H339.389L336.864 88.2578H298.389L300.913 69.2578Z" fill="white"/>
<path d="M293.913 96.2578H332.389L329.864 115.258H291.389L293.913 96.2578Z" fill="white"/>
<path d="M352.389 5.25781L341.806 65.2578H322.389L333.971 5.25781H352.389Z" fill="white"/>
<path d="M355.389 69.2578L347.183 115.258H328.389L336.595 69.2578H355.389Z" fill="white"/>
<path d="M313.389 69.2578L304.318 115.258H285.389L294.459 69.2578H313.389Z" fill="white"/>
<path d="M284.513 5H304.151L301.696 20.7099H282.059L284.513 5Z" fill="white"/>
<path d="M275.094 31.0729L291.061 18.4854L319.067 65.2814H295.52L275.094 31.0729Z" fill="white"/>
<path d="M289.01 14.4033L306.157 24.4359L272.419 78.5356L251.389 78.2568L289.01 14.4033Z" fill="white"/>
<ellipse cx="352.746" cy="49.3568" rx="10.3569" ry="10.3568" fill="white"/>
</svg>
