<svg width="360" height="54" viewBox="0 0 360 54" fill="none" xmlns="http://www.w3.org/2000/svg">
<path fill-rule="evenodd" clip-rule="evenodd" d="M25.512 16C22.4678 16 20 18.4678 20 21.512V38.488C20 41.5322 22.4678 44 25.512 44H42.488C45.5322 44 48 41.5322 48 38.488V21.512C48 18.4678 45.5322 16 42.488 16H25.512ZM33.5274 37.0676C33.5844 37.2961 33.7835 37.4667 34.019 37.4667C34.2548 37.4667 34.4542 37.2955 34.5105 37.0664C34.6919 36.3276 35.0403 35.5472 35.5555 34.725C35.9704 34.0639 36.5019 33.4352 37.15 32.8389C37.7981 32.2296 38.4981 31.7046 39.25 31.2639C39.8724 30.9053 40.4776 30.6453 41.0656 30.4841C41.2968 30.4207 41.4667 30.2164 41.4667 29.9767C41.4667 29.7405 41.3018 29.5379 41.0742 29.4746C40.1466 29.2168 39.2339 28.7697 38.3361 28.1333C37.6491 27.6407 37.0268 27.0898 36.4695 26.4806C35.925 25.8583 35.4778 25.2102 35.1278 24.5361C34.8497 23.9902 34.6453 23.4566 34.5145 22.9353C34.4565 22.7044 34.2545 22.5333 34.0165 22.5333C33.781 22.5333 33.5805 22.7007 33.5211 22.9285C33.2945 23.7981 32.8772 24.6775 32.2694 25.5667C31.5824 26.5648 30.7269 27.4204 29.7028 28.1333C28.8116 28.7503 27.8851 29.1961 26.9234 29.4707C26.6963 29.5355 26.5333 29.7392 26.5333 29.9754C26.5333 30.2163 26.7028 30.4223 26.9351 30.4862C27.916 30.7559 28.8969 31.2614 29.8778 32.0028C31.0056 32.8454 31.8741 33.7592 32.4833 34.7445C32.9976 35.565 33.3456 36.3394 33.5274 37.0676Z" fill="white"/>
<path d="M54.5732 20.386H70.1839L69.2956 24.7999H53.9182L54.5732 20.386Z" fill="white"/>
<path d="M64.08 32.1603H73.0575L72.4684 36.5936H63.4908L64.08 32.1603Z" fill="white"/>
<path d="M62.4466 38.4603H71.4241L70.835 42.8937H61.8574L62.4466 38.4603Z" fill="white"/>
<path d="M76.0908 17.2271L73.6216 31.2271H69.0908L71.7934 17.2271H76.0908Z" fill="white"/>
<path d="M76.7908 32.1603L74.8761 42.8936H70.4908L72.4056 32.1603H76.7908Z" fill="white"/>
<path d="M66.9909 32.1603L64.8744 42.8936H60.4575L62.574 32.1603H66.9909Z" fill="white"/>
<path d="M60.2532 17.1667H64.8353L64.2626 20.8324H59.6804L60.2532 17.1667Z" fill="white"/>
<path d="M58.0553 23.2506L61.7809 20.3135L68.3158 31.2325H62.8214L58.0553 23.2506Z" fill="white"/>
<path d="M61.3024 19.3608L65.3034 21.7018L57.4311 34.325L52.5242 34.26L61.3024 19.3608Z" fill="white"/>
<ellipse cx="76.1741" cy="27.5167" rx="2.41661" ry="2.41658" fill="white"/>
<path d="M80.7066 20.386H96.3173L95.429 24.7999H80.0516L80.7066 20.386Z" fill="white"/>
<path d="M90.2134 32.1603H99.1909L98.6018 36.5936H89.6243L90.2134 32.1603Z" fill="white"/>
<path d="M88.5801 38.4603H97.5576L96.9685 42.8937H87.991L88.5801 38.4603Z" fill="white"/>
<path d="M102.224 17.2271L99.755 31.2271H95.2242L97.9268 17.2271H102.224Z" fill="white"/>
<path d="M102.924 32.1603L101.01 42.8936H96.6243L98.539 32.1603H102.924Z" fill="white"/>
<path d="M93.1243 32.1603L91.0078 42.8936H86.5909L88.7074 32.1603H93.1243Z" fill="white"/>
<path d="M86.3867 17.1667H90.9689L90.3961 20.8324H85.814L86.3867 17.1667Z" fill="white"/>
<path d="M84.1888 23.2506L87.9145 20.3135L94.4493 31.2325H88.955L84.1888 23.2506Z" fill="white"/>
<path d="M87.4359 19.3608L91.4368 21.7018L83.5646 34.325L78.6576 34.26L87.4359 19.3608Z" fill="white"/>
<ellipse cx="102.308" cy="27.5167" rx="2.41661" ry="2.41658" fill="white"/>
</svg>
