<svg width="17" height="16" viewBox="0 0 17 16" fill="none" xmlns="http://www.w3.org/2000/svg">
<path d="M8.52032 16C8.26798 16 8.0547 15.8173 7.99359 15.5725C7.79882 14.7922 7.42595 13.9625 6.875 13.0834C6.22222 12.0278 5.29166 11.0486 4.08334 10.1458C3.03239 9.35152 1.98145 8.80984 0.93051 8.52088C0.681604 8.45248 0.5 8.23176 0.5 7.97362C0.5 7.72053 0.674618 7.50236 0.917978 7.43287C1.94836 7.13868 2.94098 6.66105 3.89583 6C4.99306 5.23611 5.90972 4.31944 6.64583 3.25C7.29703 2.29732 7.74406 1.3551 7.9869 0.423366C8.05052 0.179276 8.26541 0 8.51768 0C8.77272 0 8.98912 0.183246 9.0512 0.430664C9.19136 0.989232 9.4104 1.56096 9.70832 2.14583C10.0834 2.86806 10.5625 3.5625 11.1458 4.22917C11.743 4.88194 12.4098 5.47222 13.1458 6C14.1078 6.68185 15.0856 7.16089 16.0795 7.43712C16.3234 7.50487 16.5 7.72195 16.5 7.97499C16.5 8.23184 16.318 8.45072 16.0703 8.51864C15.4403 8.69136 14.7918 8.96992 14.125 9.35416C13.3194 9.8264 12.5694 10.3889 11.875 11.0417C11.1806 11.6806 10.6111 12.3542 10.1666 13.0625C9.61464 13.9434 9.24136 14.7796 9.04696 15.5711C8.98664 15.8166 8.77304 16 8.52032 16Z" fill="white"/>
</svg>
