<svg width="16" height="16" viewBox="0 0 16 16" fill="none" xmlns="http://www.w3.org/2000/svg">
<g id="Exclude">
<path id="Exclude_2" fill-rule="evenodd" clip-rule="evenodd" d="M3.14973 0C1.41018 0 0 1.41018 0 3.14972V12.8503C0 14.5898 1.41018 16 3.14972 16H12.8503C14.5898 16 16 14.5898 16 12.8503V3.14973C16 1.41018 14.5898 0 12.8503 0H3.14973ZM7.72992 12.0387C7.76251 12.1692 7.87626 12.2667 8.01084 12.2667C8.14562 12.2667 8.25954 12.1689 8.29171 12.0379C8.39539 11.6158 8.59447 11.1698 8.88888 10.7C9.12593 10.3222 9.42963 9.96297 9.79998 9.62223C10.1704 9.27407 10.5704 8.97408 11 8.72222C11.3556 8.51729 11.7015 8.36873 12.0375 8.27661C12.1696 8.24039 12.2667 8.12365 12.2667 7.98666C12.2667 7.85171 12.1725 7.73593 12.0424 7.6998C11.5123 7.55247 10.9908 7.29699 10.4778 6.93333C10.0852 6.65185 9.72962 6.33704 9.41112 5.98889C9.09999 5.63333 8.84446 5.26296 8.64444 4.87778C8.48555 4.56585 8.36873 4.26092 8.29397 3.96302C8.26086 3.83106 8.14545 3.73333 8.00943 3.73333C7.87489 3.73333 7.76028 3.82895 7.72635 3.95913C7.59683 4.45606 7.35842 4.95857 7.01111 5.46667C6.61852 6.03703 6.12963 6.52593 5.54444 6.93333C5.03519 7.28589 4.50579 7.54063 3.95626 7.69753C3.82646 7.73459 3.73333 7.85095 3.73333 7.98593C3.73333 8.12361 3.83019 8.24132 3.96294 8.2778C4.52344 8.43192 5.08394 8.72081 5.64445 9.14445C6.28889 9.62594 6.78519 10.1481 7.13333 10.7111C7.42718 11.18 7.62604 11.6225 7.72992 12.0387Z" fill="#5E31FE"/>
</g>
</svg>
